<svg width="12" height="12" viewBox="0 0 12 12" fill="none" xmlns="http://www.w3.org/2000/svg">
<path d="M4.31266 0.0239258C3.43371 0.0239258 2.70987 0.833644 2.70987 1.81687C2.70987 2.8001 3.43371 3.60982 4.31266 3.60982C5.20884 3.60982 5.91544 2.8001 5.91544 1.81687C5.91544 0.833644 5.1916 0.0239258 4.31266 0.0239258Z" fill="url(#paint0_linear_2101_308)"/>
<path d="M7.01843 6.34717C6.4497 5.90375 6.05331 5.17115 6.01884 4.34216C5.7948 4.2072 5.53628 4.11081 5.26053 4.03369L4.29541 4.90125L3.3303 4.05297C2.26177 4.32288 1.50346 5.07476 1.50346 6.21222V6.79059C1.31389 6.90626 1.15878 7.02194 1.0209 7.15689C0.693453 7.44607 0.503876 7.7931 0.503876 8.17868C0.503876 9.39325 2.34794 10.1259 4.36435 10.3186V9.74028C2.34794 9.54749 1.0209 8.81488 1.0209 8.1594C1.0209 7.38824 2.8305 6.53996 5.43288 6.53996C5.77756 6.53996 6.10501 6.55924 6.41523 6.57852C6.58757 6.5014 6.79438 6.42429 7.01843 6.34717Z" fill="url(#paint1_linear_2101_308)"/>
<path d="M3.29584 7.60051C3.29584 7.92826 3.95074 8.19816 4.74352 8.19816C4.81245 8.19816 4.88139 8.19816 4.96756 8.19816C5.1399 7.7933 5.38118 7.44628 5.72587 7.1571C5.46735 7.0607 5.12267 7.00287 4.76075 7.00287C3.9335 6.98359 3.29584 7.27277 3.29584 7.60051Z" fill="url(#paint2_linear_2101_308)"/>
<path d="M8.32824 6.2317C9.32783 6.2317 10.1378 5.32558 10.1378 4.2074C10.1378 3.08922 9.32783 2.18311 8.32824 2.18311C7.32866 2.18311 6.51865 3.08922 6.51865 4.2074C6.51865 5.32558 7.32866 6.2317 8.32824 6.2317Z" fill="url(#paint3_linear_2101_308)"/>
<path d="M11.4648 9.0852C11.327 7.60072 9.96546 6.75244 8.32821 6.75244C6.60478 6.75244 5.17434 7.65855 5.17434 9.35511C5.002 9.41294 4.89859 9.58645 4.89859 9.77924V11.3987H5.38115V9.85636C5.58796 9.87564 6.27733 9.89492 7.19075 9.89492C8.39715 9.89492 9.9827 9.83708 11.4131 9.62501V11.1673H11.8785V9.52862C11.8785 9.39366 11.8268 9.27799 11.7406 9.1816C11.6717 9.12376 11.5683 9.0852 11.4648 9.0852Z" fill="url(#paint4_linear_2101_308)"/>
<defs>
<linearGradient id="paint0_linear_2101_308" x1="5.91544" y1="0.0239264" x2="2.21839" y2="0.634664" gradientUnits="userSpaceOnUse">
<stop stop-color="#1DE8B7"/>
<stop offset="1" stop-color="#1DC5E7"/>
</linearGradient>
<linearGradient id="paint1_linear_2101_308" x1="7.01843" y1="4.03369" x2="-0.426817" y2="5.4598" gradientUnits="userSpaceOnUse">
<stop stop-color="#1DE8B7"/>
<stop offset="1" stop-color="#1DC5E7"/>
</linearGradient>
<linearGradient id="paint2_linear_2101_308" x1="5.72587" y1="7.00195" x2="3.2024" y2="7.94926" gradientUnits="userSpaceOnUse">
<stop stop-color="#1DE8B7"/>
<stop offset="1" stop-color="#1DC5E7"/>
</linearGradient>
<linearGradient id="paint3_linear_2101_308" x1="10.1378" y1="2.18311" x2="5.96375" y2="2.87265" gradientUnits="userSpaceOnUse">
<stop stop-color="#1DE8B7"/>
<stop offset="1" stop-color="#1DC5E7"/>
</linearGradient>
<linearGradient id="paint4_linear_2101_308" x1="11.8785" y1="6.75244" x2="4.20047" y2="8.88394" gradientUnits="userSpaceOnUse">
<stop stop-color="#1DE8B7"/>
<stop offset="1" stop-color="#1DC5E7"/>
</linearGradient>
</defs>
</svg>
